<?xml version="1.0" standalone="no"?>
<!DOCTYPE svg PUBLIC "-//W3C//DTD SVG 20010904//EN"
 "http://www.w3.org/TR/2001/REC-SVG-20010904/DTD/svg10.dtd">
<svg version="1.0" xmlns="http://www.w3.org/2000/svg"
 width="400.000000pt" height="300.000000pt" viewBox="0 0 400.000000 300.000000"
 preserveAspectRatio="xMidYMid meet">

<g transform="translate(0.000000,300.000000) scale(0.100000,-0.100000)"
fill="#000000" stroke="none">
<path d="M1522 1748 l3 -373 28 -65 c16 -36 31 -72 33 -81 3 -9 -34 -82 -85
-166 -50 -82 -93 -158 -97 -167 -6 -15 8 -16 157 -14 l164 3 43 71 44 72 56
-21 c82 -31 261 -31 347 1 32 12 61 22 62 22 2 0 3 -34 3 -75 l0 -75 140 0
140 0 0 620 0 620 -214 0 -214 0 -163 -274 -164 -274 -3 274 -2 274 -141 0
-140 0 3 -372z m190 -29 l3 -300 -31 -50 -32 -49 -11 27 c-24 61 -31 147 -31
404 l0 269 50 0 49 0 3 -301z m750 4 c-2 -339 -7 -365 -75 -465 -51 -74 -141
-140 -225 -164 -74 -22 -183 -22 -249 0 l-52 17 23 37 c16 25 30 36 42 33 11
-2 62 -4 114 -5 85 -1 100 2 145 26 70 36 137 112 164 181 19 53 21 77 21 302
l0 245 -64 0 -65 0 -283 -472 -284 -473 -52 -3 c-29 -2 -52 0 -52 3 0 3 138
237 307 520 l308 515 140 0 140 0 -3 -297z m-192 -261 c-18 -100 -84 -170
-181 -191 -49 -11 -119 -4 -119 11 0 9 271 468 294 497 15 19 20 -242 6 -317z
m193 -350 c-1 -42 -2 -89 -2 -104 -1 -26 -4 -28 -46 -28 l-45 0 0 57 c0 52 3
59 43 103 23 27 44 48 47 49 3 1 4 -34 3 -77z"/>
<path d="M3530 398 c0 -51 5 -100 10 -108 6 -10 2 -27 -16 -57 l-25 -43 45 0
c25 0 46 5 48 12 6 16 118 17 118 1 0 -8 14 -13 35 -13 l35 0 0 151 0 150 -52
-3 -53 -3 -37 -65 -38 -65 0 68 0 67 -35 0 -35 0 0 -92z m42 -9 c3 -72 -4
-105 -16 -74 -9 26 -7 145 3 145 5 0 11 -32 13 -71z m188 -1 c0 -40 -6 -84
-13 -98 -15 -31 -75 -61 -105 -54 -34 9 -26 24 12 24 59 0 80 27 84 109 4 66
3 71 -16 71 -15 0 -37 -30 -88 -115 -38 -63 -74 -115 -81 -115 -7 0 22 56 63
125 73 121 76 125 110 125 l34 0 0 -72z m-66 -89 c-9 -10 -26 -19 -36 -19 -17
0 -15 6 14 60 l33 59 3 -40 c2 -28 -2 -47 -14 -60z m66 -64 c0 -14 -4 -25 -10
-25 -11 0 -14 33 -3 43 11 11 13 8 13 -18z"/>
</g>
</svg>
