<?xml version="1.0" standalone="no"?>
<!DOCTYPE svg PUBLIC "-//W3C//DTD SVG 20010904//EN"
 "http://www.w3.org/TR/2001/REC-SVG-20010904/DTD/svg10.dtd">
<svg version="1.0" xmlns="http://www.w3.org/2000/svg"
 width="512.000000pt" height="512.000000pt" viewBox="0 0 512.000000 512.000000"
 preserveAspectRatio="xMidYMid meet">

<g transform="translate(0.000000,512.000000) scale(0.100000,-0.100000)"
fill="#000000" stroke="none">
<path d="M452 5100 c-109 -29 -187 -74 -272 -160 -87 -86 -131 -163 -160 -276
-20 -75 -20 -117 -20 -1744 0 -1627 0 -1669 20 -1744 29 -113 73 -190 160
-276 86 -87 163 -131 276 -160 73 -19 113 -20 792 -20 l714 0 -4 -109 c-4
-133 -17 -156 -99 -185 -45 -16 -92 -20 -276 -24 l-223 -4 0 -199 0 -199 1200
0 1200 0 0 199 0 199 -223 4 c-184 4 -231 8 -276 24 -82 29 -95 52 -99 185
l-4 109 714 0 c679 0 719 1 792 20 113 29 190 73 276 160 87 86 131 163 160
276 20 75 20 117 20 1744 0 1627 0 1669 -20 1744 -29 113 -73 190 -160 276
-86 87 -163 131 -276 160 -76 20 -117 20 -2108 19 -1967 0 -2033 -1 -2104 -19z
m4171 -409 c21 -13 50 -42 65 -64 l27 -41 0 -1666 0 -1666 -27 -41 c-15 -22
-44 -51 -65 -64 l-38 -24 -2026 0 -2025 0 -41 27 c-22 15 -51 44 -64 65 l-24
38 -3 1643 c-1 1139 1 1656 8 1684 13 47 77 114 122 127 21 6 793 9 2043 8
l2010 -2 38 -24z m-1860 -4103 c4 -73 9 -145 13 -160 l6 -28 -222 0 -222 0 6
28 c4 15 9 87 13 160 l6 132 197 0 197 0 6 -132z"/>
<path d="M760 3720 l0 -600 800 0 800 0 0 600 0 600 -800 0 -800 0 0 -600z
m1200 0 l0 -200 -400 0 -400 0 0 200 0 200 400 0 400 0 0 -200z"/>
<path d="M2760 3720 l0 -600 800 0 800 0 0 600 0 600 -800 0 -800 0 0 -600z
m1200 0 l0 -200 -400 0 -400 0 0 200 0 200 400 0 400 0 0 -200z"/>
<path d="M760 2120 l0 -600 800 0 800 0 0 600 0 600 -800 0 -800 0 0 -600z
m1200 0 l0 -200 -400 0 -400 0 0 200 0 200 400 0 400 0 0 -200z"/>
<path d="M2760 2120 l0 -600 800 0 800 0 0 600 0 600 -800 0 -800 0 0 -600z
m1200 0 l0 -200 -400 0 -400 0 0 200 0 200 400 0 400 0 0 -200z"/>
</g>
</svg>
